<svg width="80" height="80" viewBox="0 0 80 80" fill="none" xmlns="http://www.w3.org/2000/svg">
<path d="M38.6188 53.443C38.0846 53.4431 37.5558 53.3371 37.0629 53.1311C36.57 52.9251 36.123 52.6232 35.7478 52.243L27.1058 43.531C24.3428 40.7439 22.4665 37.2014 21.7131 33.3499C20.9597 29.4983 21.363 25.5099 22.8722 21.8871C24.3814 18.2644 26.9289 15.1692 30.1939 12.9916C33.4588 10.814 37.2952 9.65132 41.2198 9.65002H41.2998C43.9119 9.6536 46.4974 10.1751 48.9066 11.1844C51.3159 12.1937 53.5011 13.6707 55.3358 15.53C55.7101 15.907 56.0064 16.354 56.2079 16.8455C56.4095 17.337 56.5122 17.8633 56.5103 18.3945C56.5084 18.9257 56.4019 19.4513 56.1968 19.9414C55.9918 20.4314 55.6923 20.8763 55.3153 21.2505C54.9383 21.6248 54.4913 21.9211 53.9999 22.1227C53.5084 22.3242 52.982 22.4269 52.4508 22.425C51.9196 22.4231 51.394 22.3166 50.9039 22.1116C50.4139 21.9065 49.9691 21.607 49.5948 21.23C48.5182 20.0704 47.2193 19.1392 45.7755 18.4917C44.3316 17.8442 42.7723 17.4938 41.1903 17.4612C39.6083 17.4286 38.0359 17.7145 36.5666 18.302C35.0973 18.8894 33.7612 19.7663 32.6377 20.8806C31.5142 21.9949 30.6263 23.3238 30.0268 24.7882C29.4274 26.2526 29.1285 27.8226 29.1481 29.4049C29.1677 30.9871 29.5054 32.5492 30.1409 33.9983C30.7765 35.4474 31.6971 36.7539 32.8478 37.84L41.4898 46.552C42.0518 47.1189 42.4334 47.8395 42.5866 48.6228C42.7398 49.4062 42.6577 50.2175 42.3507 50.9543C42.0437 51.6911 41.5256 52.3206 40.8615 52.7635C40.1973 53.2064 39.417 53.4428 38.6188 53.443Z" fill="url(#paint0_linear)"/>
<path d="M36.8039 70.35H36.7209C34.1088 70.3464 31.5234 69.8248 29.1142 68.8155C26.7049 67.8062 24.5197 66.3293 22.6849 64.47C21.9291 63.7086 21.5066 62.6781 21.5106 61.6052C21.5125 61.0739 21.6191 60.5483 21.8242 60.0582C22.0293 59.5682 22.3289 59.1233 22.7059 58.749C23.083 58.3748 23.53 58.0784 24.0216 57.8769C24.5131 57.6754 25.0395 57.5727 25.5708 57.5747C26.6437 57.5786 27.6711 58.0086 28.4269 58.77C29.5153 59.8732 30.8117 60.7496 32.241 61.3485C33.6703 61.9474 35.2042 62.2569 36.7539 62.259H36.8029C39.1303 62.2562 41.4048 61.5652 43.3404 60.2729C45.276 58.9807 46.7862 57.1449 47.6812 54.9966C48.5761 52.8482 48.8158 50.4832 48.37 48.1989C47.9242 45.9147 46.813 43.8133 45.1759 42.159L36.5339 33.448C35.7781 32.6867 35.3556 31.6563 35.3594 30.5835C35.3633 29.5107 35.7931 28.4834 36.5544 27.7275C37.3157 26.9716 38.3461 26.5492 39.4189 26.553C40.4917 26.5568 41.5191 26.9867 42.2749 27.748L50.9139 36.465C58.6349 44.248 58.5839 56.865 50.8009 64.583C48.9618 66.4176 46.7788 67.8713 44.3769 68.8609C41.9751 69.8505 39.4016 70.3565 36.8039 70.35Z" fill="url(#paint1_linear)"/>
<defs>
<linearGradient id="paint0_linear" x1="21.3388" y1="31.547" x2="56.5108" y2="31.547" gradientUnits="userSpaceOnUse">
<stop offset="0.1" stop-color="#9098FF"/>
<stop offset="1" stop-color="#6BA7FF"/>
</linearGradient>
<linearGradient id="paint1_linear" x1="8284.01" y1="21247.6" x2="20647.3" y2="21247.6" gradientUnits="userSpaceOnUse">
<stop offset="0.1" stop-color="#9098FF"/>
<stop offset="1" stop-color="#6BA7FF"/>
</linearGradient>
</defs>
</svg>
